<!DOCTYPE svg PUBLIC "-//W3C//DTD SVG 1.1//EN"
 "http://www.w3.org/Graphics/SVG/1.1/DTD/svg11.dtd">
<svg version="1.1"
 width="600px" height="482px"
 viewBox="0 0 600 482"
 xmlns="http://www.w3.org/2000/svg" shape-rendering="crispEdges"
 stroke-width="1" text-rendering="geometricPrecision">
<polygon fill="white" points="38,7 60,7 60,16 38,16"/>
<text x="50" y="16" textLength="20" font-family="Helvetica" font-size="12" fill="black" text-anchor="middle">

app
</text>
<polygon fill="white" points="129,7 169,7 169,16 129,16"/>
<text x="150" y="16" textLength="39" font-family="Helvetica" font-size="12" fill="black" text-anchor="middle">

L_mctrl
</text>
<polygon fill="white" points="232,7 266,7 266,16 232,16"/>
<text x="250" y="16" textLength="33" font-family="Helvetica" font-size="12" fill="black" text-anchor="middle">

L_mpl
</text>
<polygon fill="white" points="313,7 385,7 385,16 313,16"/>
<text x="350" y="16" textLength="70" font-family="Helvetica" font-size="12" fill="black" text-anchor="middle">

L_mcs_client
</text>
<polygon fill="white" points="430,7 468,7 468,16 430,16"/>
<text x="450" y="16" textLength="37" font-family="Helvetica" font-size="12" fill="black" text-anchor="middle">

R_mcs
</text>
<polygon fill="white" points="531,7 567,7 567,16 531,16"/>
<text x="550" y="16" textLength="35" font-family="Helvetica" font-size="12" fill="black" text-anchor="middle">

R_mpl
</text>
<line x1="50" y1="22" x2="50" y2="39" stroke="black"/>
<line x1="150" y1="22" x2="150" y2="39" stroke="black"/>
<line x1="250" y1="22" x2="250" y2="39" stroke="black"/>
<line x1="350" y1="22" x2="350" y2="39" stroke="black"/>
<line x1="450" y1="22" x2="450" y2="39" stroke="black"/>
<line x1="550" y1="22" x2="550" y2="39" stroke="black"/>
<line x1="50" y1="39" x2="50" y2="67" stroke="black"/>
<line x1="150" y1="39" x2="150" y2="67" stroke="black"/>
<line x1="250" y1="39" x2="250" y2="67" stroke="black"/>
<line x1="350" y1="39" x2="350" y2="67" stroke="black"/>
<line x1="450" y1="39" x2="450" y2="67" stroke="black"/>
<line x1="550" y1="39" x2="550" y2="67" stroke="black"/>
<polygon fill="white" points="408,39 492,39 492,61 408,61"/>
<line x1="408" y1="39" x2="492" y2="39" stroke="black"/>
<line x1="408" y1="61" x2="492" y2="61" stroke="black"/>
<line x1="408" y1="39" x2="408" y2="61" stroke="black"/>
<line x1="492" y1="39" x2="492" y2="61" stroke="black"/>
<polygon fill="white" points="414,40 484,40 484,49 414,49"/>
<text x="415" y="49" textLength="68" font-family="Helvetica" font-size="12" fill="black">
set up GATT
</text>
<polygon fill="white" points="432,51 467,51 467,60 432,60"/>
<text x="433" y="60" textLength="33" font-family="Helvetica" font-size="12" fill="black">
server
</text>
<line x1="50" y1="67" x2="50" y2="84" stroke="black" stroke-dasharray="2,2"/>
<line x1="150" y1="67" x2="150" y2="84" stroke="black" stroke-dasharray="2,2"/>
<line x1="250" y1="67" x2="250" y2="84" stroke="black" stroke-dasharray="2,2"/>
<line x1="350" y1="67" x2="350" y2="84" stroke="black" stroke-dasharray="2,2"/>
<line x1="450" y1="67" x2="450" y2="84" stroke="black" stroke-dasharray="2,2"/>
<line x1="550" y1="67" x2="550" y2="84" stroke="black" stroke-dasharray="2,2"/>
<line x1="50" y1="84" x2="50" y2="112" stroke="black"/>
<line x1="150" y1="84" x2="150" y2="112" stroke="black"/>
<line x1="250" y1="84" x2="250" y2="112" stroke="black"/>
<line x1="350" y1="84" x2="350" y2="112" stroke="black"/>
<line x1="450" y1="84" x2="450" y2="112" stroke="black"/>
<line x1="550" y1="84" x2="550" y2="112" stroke="black"/>
<polygon fill="white" points="8,84 292,84 292,106 8,106"/>
<line x1="8" y1="84" x2="292" y2="84" stroke="black"/>
<line x1="8" y1="106" x2="292" y2="106" stroke="black"/>
<line x1="8" y1="84" x2="8" y2="106" stroke="black"/>
<line x1="292" y1="84" x2="292" y2="106" stroke="black"/>
<polygon fill="white" points="122,91 176,91 176,100 122,100"/>
<text x="123" y="100" textLength="52" font-family="Helvetica" font-size="12" fill="black">
local read
</text>
<line x1="50" y1="112" x2="50" y2="140" stroke="black"/>
<line x1="150" y1="112" x2="150" y2="140" stroke="black"/>
<line x1="250" y1="112" x2="250" y2="140" stroke="black"/>
<line x1="350" y1="112" x2="350" y2="140" stroke="black"/>
<line x1="450" y1="112" x2="450" y2="140" stroke="black"/>
<line x1="550" y1="112" x2="550" y2="140" stroke="black"/>
<line x1="50" y1="123" x2="150" y2="123" stroke="black"/>
<polygon fill="black" points="150,123 140,129 140,117"/>
<polygon fill="white" points="86,113 112,113 112,122 86,122"/>
<text x="87" y="122" textLength="24" font-family="Helvetica" font-size="12" fill="black">
read
</text>
<line x1="50" y1="140" x2="50" y2="168" stroke="black"/>
<line x1="150" y1="140" x2="150" y2="168" stroke="black"/>
<line x1="250" y1="140" x2="250" y2="168" stroke="black"/>
<line x1="350" y1="140" x2="350" y2="168" stroke="black"/>
<line x1="450" y1="140" x2="450" y2="168" stroke="black"/>
<line x1="550" y1="140" x2="550" y2="168" stroke="black"/>
<line x1="150" y1="151" x2="250" y2="151" stroke="black"/>
<polygon fill="black" points="250,151 240,157 240,145"/>
<polygon fill="white" points="186,141 212,141 212,150 186,150"/>
<text x="187" y="150" textLength="24" font-family="Helvetica" font-size="12" fill="black">
read
</text>
<line x1="50" y1="168" x2="50" y2="196" stroke="black"/>
<line x1="150" y1="168" x2="150" y2="196" stroke="black"/>
<line x1="250" y1="168" x2="250" y2="196" stroke="black"/>
<line x1="350" y1="168" x2="350" y2="196" stroke="black"/>
<line x1="450" y1="168" x2="450" y2="196" stroke="black"/>
<line x1="550" y1="168" x2="550" y2="196" stroke="black"/>
<line x1="250" y1="179" x2="150" y2="179" stroke="black" stroke-dasharray="2,2"/>
<polygon fill="black" points="150,179 160,185 160,173"/>
<polygon fill="white" points="167,169 232,169 232,178 167,178"/>
<text x="168" y="178" textLength="63" font-family="Helvetica" font-size="12" fill="black">
read results
</text>
<line x1="50" y1="196" x2="50" y2="224" stroke="black"/>
<line x1="150" y1="196" x2="150" y2="224" stroke="black"/>
<line x1="250" y1="196" x2="250" y2="224" stroke="black"/>
<line x1="350" y1="196" x2="350" y2="224" stroke="black"/>
<line x1="450" y1="196" x2="450" y2="224" stroke="black"/>
<line x1="550" y1="196" x2="550" y2="224" stroke="black"/>
<line x1="150" y1="207" x2="50" y2="207" stroke="black"/>
<line x1="50" y1="207" x2="60" y2="213" stroke="black"/>
<line x1="50" y1="207" x2="60" y2="201" stroke="black"/>
<polygon fill="white" points="86,197 112,197 112,206 86,206"/>
<text x="87" y="206" textLength="24" font-family="Helvetica" font-size="12" fill="black">
read
</text>
<line x1="50" y1="224" x2="50" y2="241" stroke="black" stroke-dasharray="2,2"/>
<line x1="150" y1="224" x2="150" y2="241" stroke="black" stroke-dasharray="2,2"/>
<line x1="250" y1="224" x2="250" y2="241" stroke="black" stroke-dasharray="2,2"/>
<line x1="350" y1="224" x2="350" y2="241" stroke="black" stroke-dasharray="2,2"/>
<line x1="450" y1="224" x2="450" y2="241" stroke="black" stroke-dasharray="2,2"/>
<line x1="550" y1="224" x2="550" y2="241" stroke="black" stroke-dasharray="2,2"/>
<line x1="50" y1="241" x2="50" y2="258" stroke="black"/>
<line x1="150" y1="241" x2="150" y2="258" stroke="black"/>
<line x1="250" y1="241" x2="250" y2="258" stroke="black"/>
<line x1="350" y1="241" x2="350" y2="258" stroke="black"/>
<line x1="450" y1="241" x2="450" y2="258" stroke="black"/>
<line x1="550" y1="241" x2="550" y2="258" stroke="black"/>
<line x1="50" y1="258" x2="50" y2="286" stroke="black"/>
<line x1="150" y1="258" x2="150" y2="286" stroke="black"/>
<line x1="250" y1="258" x2="250" y2="286" stroke="black"/>
<line x1="350" y1="258" x2="350" y2="286" stroke="black"/>
<line x1="450" y1="258" x2="450" y2="286" stroke="black"/>
<line x1="550" y1="258" x2="550" y2="286" stroke="black"/>
<polygon fill="white" points="8,258 592,258 592,280 8,280"/>
<line x1="8" y1="258" x2="592" y2="258" stroke="black"/>
<line x1="8" y1="280" x2="592" y2="280" stroke="black"/>
<line x1="8" y1="258" x2="8" y2="280" stroke="black"/>
<line x1="592" y1="258" x2="592" y2="280" stroke="black"/>
<polygon fill="white" points="266,265 333,265 333,274 266,274"/>
<text x="267" y="274" textLength="65" font-family="Helvetica" font-size="12" fill="black">
remote read
</text>
<line x1="50" y1="286" x2="50" y2="314" stroke="black"/>
<line x1="150" y1="286" x2="150" y2="314" stroke="black"/>
<line x1="250" y1="286" x2="250" y2="314" stroke="black"/>
<line x1="350" y1="286" x2="350" y2="314" stroke="black"/>
<line x1="450" y1="286" x2="450" y2="314" stroke="black"/>
<line x1="550" y1="286" x2="550" y2="314" stroke="black"/>
<line x1="50" y1="297" x2="150" y2="297" stroke="black"/>
<polygon fill="black" points="150,297 140,303 140,291"/>
<polygon fill="white" points="86,287 112,287 112,296 86,296"/>
<text x="87" y="296" textLength="24" font-family="Helvetica" font-size="12" fill="black">
read
</text>
<line x1="50" y1="314" x2="50" y2="342" stroke="black"/>
<line x1="150" y1="314" x2="150" y2="342" stroke="black"/>
<line x1="250" y1="314" x2="250" y2="342" stroke="black"/>
<line x1="350" y1="314" x2="350" y2="342" stroke="black"/>
<line x1="450" y1="314" x2="450" y2="342" stroke="black"/>
<line x1="550" y1="314" x2="550" y2="342" stroke="black"/>
<line x1="150" y1="325" x2="350" y2="325" stroke="black"/>
<polygon fill="black" points="350,325 340,331 340,319"/>
<polygon fill="white" points="236,315 262,315 262,324 236,324"/>
<text x="237" y="324" textLength="24" font-family="Helvetica" font-size="12" fill="black">
read
</text>
<line x1="50" y1="342" x2="50" y2="370" stroke="black"/>
<line x1="150" y1="342" x2="150" y2="370" stroke="black"/>
<line x1="250" y1="342" x2="250" y2="370" stroke="black"/>
<line x1="350" y1="342" x2="350" y2="370" stroke="black"/>
<line x1="450" y1="342" x2="450" y2="370" stroke="black"/>
<line x1="550" y1="342" x2="550" y2="370" stroke="black"/>
<line x1="350" y1="353" x2="450" y2="353" stroke="black"/>
<polygon fill="black" points="450,353 440,359 440,347"/>
<polygon fill="white" points="386,343 412,343 412,352 386,352"/>
<text x="387" y="352" textLength="24" font-family="Helvetica" font-size="12" fill="black">
read
</text>
<line x1="50" y1="370" x2="50" y2="398" stroke="black"/>
<line x1="150" y1="370" x2="150" y2="398" stroke="black"/>
<line x1="250" y1="370" x2="250" y2="398" stroke="black"/>
<line x1="350" y1="370" x2="350" y2="398" stroke="black"/>
<line x1="450" y1="370" x2="450" y2="398" stroke="black"/>
<line x1="550" y1="370" x2="550" y2="398" stroke="black"/>
<line x1="450" y1="381" x2="550" y2="381" stroke="black"/>
<polygon fill="black" points="550,381 540,387 540,375"/>
<polygon fill="white" points="486,371 512,371 512,380 486,380"/>
<text x="487" y="380" textLength="24" font-family="Helvetica" font-size="12" fill="black">
read
</text>
<line x1="50" y1="398" x2="50" y2="426" stroke="black"/>
<line x1="150" y1="398" x2="150" y2="426" stroke="black"/>
<line x1="250" y1="398" x2="250" y2="426" stroke="black"/>
<line x1="350" y1="398" x2="350" y2="426" stroke="black"/>
<line x1="450" y1="398" x2="450" y2="426" stroke="black"/>
<line x1="550" y1="398" x2="550" y2="426" stroke="black"/>
<line x1="550" y1="409" x2="450" y2="409" stroke="black" stroke-dasharray="2,2"/>
<polygon fill="black" points="450,409 460,415 460,403"/>
<polygon fill="white" points="467,399 532,399 532,408 467,408"/>
<text x="468" y="408" textLength="63" font-family="Helvetica" font-size="12" fill="black">
read results
</text>
<line x1="50" y1="426" x2="50" y2="454" stroke="black"/>
<line x1="150" y1="426" x2="150" y2="454" stroke="black"/>
<line x1="250" y1="426" x2="250" y2="454" stroke="black"/>
<line x1="350" y1="426" x2="350" y2="454" stroke="black"/>
<line x1="450" y1="426" x2="450" y2="454" stroke="black"/>
<line x1="550" y1="426" x2="550" y2="454" stroke="black"/>
<line x1="450" y1="437" x2="350" y2="437" stroke="black"/>
<line x1="350" y1="437" x2="360" y2="443" stroke="black"/>
<line x1="350" y1="437" x2="360" y2="431" stroke="black"/>
<polygon fill="white" points="367,427 432,427 432,436 367,436"/>
<text x="368" y="436" textLength="63" font-family="Helvetica" font-size="12" fill="black">
read results
</text>
<line x1="50" y1="454" x2="50" y2="482" stroke="black"/>
<line x1="150" y1="454" x2="150" y2="482" stroke="black"/>
<line x1="250" y1="454" x2="250" y2="482" stroke="black"/>
<line x1="350" y1="454" x2="350" y2="482" stroke="black"/>
<line x1="450" y1="454" x2="450" y2="482" stroke="black"/>
<line x1="550" y1="454" x2="550" y2="482" stroke="black"/>
<line x1="350" y1="465" x2="50" y2="465" stroke="black"/>
<line x1="50" y1="465" x2="60" y2="471" stroke="black"/>
<line x1="50" y1="465" x2="60" y2="459" stroke="black"/>
<polygon fill="white" points="167,455 232,455 232,464 167,464"/>
<text x="168" y="464" textLength="63" font-family="Helvetica" font-size="12" fill="black">
read results
</text>
<line x1="50" y1="476" x2="50" y2="482" stroke="black"/>
<line x1="150" y1="476" x2="150" y2="482" stroke="black"/>
<line x1="250" y1="476" x2="250" y2="482" stroke="black"/>
<line x1="350" y1="476" x2="350" y2="482" stroke="black"/>
<line x1="450" y1="476" x2="450" y2="482" stroke="black"/>
<line x1="550" y1="476" x2="550" y2="482" stroke="black"/>
</svg>
