<!DOCTYPE svg PUBLIC "-//W3C//DTD SVG 1.1//EN"
 "http://www.w3.org/Graphics/SVG/1.1/DTD/svg11.dtd">
<svg version="1.1"
 width="600px" height="510px"
 viewBox="0 0 600 510"
 xmlns="http://www.w3.org/2000/svg" shape-rendering="crispEdges"
 stroke-width="1" text-rendering="geometricPrecision">
<polygon fill="white" points="38,7 60,7 60,16 38,16"/>
<text x="50" y="16" textLength="20" font-family="Helvetica" font-size="12" fill="black" text-anchor="middle">

app
</text>
<polygon fill="white" points="131,7 167,7 167,16 131,16"/>
<text x="150" y="16" textLength="35" font-family="Helvetica" font-size="12" fill="black" text-anchor="middle">

L_mcs
</text>
<polygon fill="white" points="232,7 266,7 266,16 232,16"/>
<text x="250" y="16" textLength="33" font-family="Helvetica" font-size="12" fill="black" text-anchor="middle">

L_mpl
</text>
<polygon fill="white" points="313,7 385,7 385,16 313,16"/>
<text x="350" y="16" textLength="70" font-family="Helvetica" font-size="12" fill="black" text-anchor="middle">

L_mcs_client
</text>
<polygon fill="white" points="430,7 468,7 468,16 430,16"/>
<text x="450" y="16" textLength="37" font-family="Helvetica" font-size="12" fill="black" text-anchor="middle">

R_mcs
</text>
<polygon fill="white" points="531,7 567,7 567,16 531,16"/>
<text x="550" y="16" textLength="35" font-family="Helvetica" font-size="12" fill="black" text-anchor="middle">

R_mpl
</text>
<line x1="50" y1="22" x2="50" y2="39" stroke="black"/>
<line x1="150" y1="22" x2="150" y2="39" stroke="black"/>
<line x1="250" y1="22" x2="250" y2="39" stroke="black"/>
<line x1="350" y1="22" x2="350" y2="39" stroke="black"/>
<line x1="450" y1="22" x2="450" y2="39" stroke="black"/>
<line x1="550" y1="22" x2="550" y2="39" stroke="black"/>
<line x1="50" y1="39" x2="50" y2="67" stroke="black"/>
<line x1="150" y1="39" x2="150" y2="67" stroke="black"/>
<line x1="250" y1="39" x2="250" y2="67" stroke="black"/>
<line x1="350" y1="39" x2="350" y2="67" stroke="black"/>
<line x1="450" y1="39" x2="450" y2="67" stroke="black"/>
<line x1="550" y1="39" x2="550" y2="67" stroke="black"/>
<polygon fill="white" points="108,39 192,39 192,61 108,61"/>
<line x1="108" y1="39" x2="192" y2="39" stroke="black"/>
<line x1="108" y1="61" x2="192" y2="61" stroke="black"/>
<line x1="108" y1="39" x2="108" y2="61" stroke="black"/>
<line x1="192" y1="39" x2="192" y2="61" stroke="black"/>
<polygon fill="white" points="114,40 184,40 184,49 114,49"/>
<text x="115" y="49" textLength="68" font-family="Helvetica" font-size="12" fill="black">
set up GATT
</text>
<polygon fill="white" points="132,51 167,51 167,60 132,60"/>
<text x="133" y="60" textLength="33" font-family="Helvetica" font-size="12" fill="black">
server
</text>
<line x1="50" y1="67" x2="50" y2="95" stroke="black"/>
<line x1="150" y1="67" x2="150" y2="95" stroke="black"/>
<line x1="250" y1="67" x2="250" y2="95" stroke="black"/>
<line x1="350" y1="67" x2="350" y2="95" stroke="black"/>
<line x1="450" y1="67" x2="450" y2="95" stroke="black"/>
<line x1="550" y1="67" x2="550" y2="95" stroke="black"/>
<polygon fill="white" points="408,67 492,67 492,89 408,89"/>
<line x1="408" y1="67" x2="492" y2="67" stroke="black"/>
<line x1="408" y1="89" x2="492" y2="89" stroke="black"/>
<line x1="408" y1="67" x2="408" y2="89" stroke="black"/>
<line x1="492" y1="67" x2="492" y2="89" stroke="black"/>
<polygon fill="white" points="414,68 484,68 484,77 414,77"/>
<text x="415" y="77" textLength="68" font-family="Helvetica" font-size="12" fill="black">
set up GATT
</text>
<polygon fill="white" points="432,79 467,79 467,88 432,88"/>
<text x="433" y="88" textLength="33" font-family="Helvetica" font-size="12" fill="black">
server
</text>
<line x1="50" y1="95" x2="50" y2="112" stroke="black" stroke-dasharray="2,2"/>
<line x1="150" y1="95" x2="150" y2="112" stroke="black" stroke-dasharray="2,2"/>
<line x1="250" y1="95" x2="250" y2="112" stroke="black" stroke-dasharray="2,2"/>
<line x1="350" y1="95" x2="350" y2="112" stroke="black" stroke-dasharray="2,2"/>
<line x1="450" y1="95" x2="450" y2="112" stroke="black" stroke-dasharray="2,2"/>
<line x1="550" y1="95" x2="550" y2="112" stroke="black" stroke-dasharray="2,2"/>
<line x1="50" y1="112" x2="50" y2="140" stroke="black"/>
<line x1="150" y1="112" x2="150" y2="140" stroke="black"/>
<line x1="250" y1="112" x2="250" y2="140" stroke="black"/>
<line x1="350" y1="112" x2="350" y2="140" stroke="black"/>
<line x1="450" y1="112" x2="450" y2="140" stroke="black"/>
<line x1="550" y1="112" x2="550" y2="140" stroke="black"/>
<polygon fill="white" points="8,112 292,112 292,134 8,134"/>
<line x1="8" y1="112" x2="292" y2="112" stroke="black"/>
<line x1="8" y1="134" x2="292" y2="134" stroke="black"/>
<line x1="8" y1="112" x2="8" y2="134" stroke="black"/>
<line x1="292" y1="112" x2="292" y2="134" stroke="black"/>
<polygon fill="white" points="122,119 176,119 176,128 122,128"/>
<text x="123" y="128" textLength="52" font-family="Helvetica" font-size="12" fill="black">
local read
</text>
<line x1="50" y1="140" x2="50" y2="168" stroke="black"/>
<line x1="150" y1="140" x2="150" y2="168" stroke="black"/>
<line x1="250" y1="140" x2="250" y2="168" stroke="black"/>
<line x1="350" y1="140" x2="350" y2="168" stroke="black"/>
<line x1="450" y1="140" x2="450" y2="168" stroke="black"/>
<line x1="550" y1="140" x2="550" y2="168" stroke="black"/>
<line x1="50" y1="151" x2="150" y2="151" stroke="black"/>
<polygon fill="black" points="150,151 140,157 140,145"/>
<polygon fill="white" points="86,141 112,141 112,150 86,150"/>
<text x="87" y="150" textLength="24" font-family="Helvetica" font-size="12" fill="black">
read
</text>
<line x1="50" y1="168" x2="50" y2="196" stroke="black"/>
<line x1="150" y1="168" x2="150" y2="196" stroke="black"/>
<line x1="250" y1="168" x2="250" y2="196" stroke="black"/>
<line x1="350" y1="168" x2="350" y2="196" stroke="black"/>
<line x1="450" y1="168" x2="450" y2="196" stroke="black"/>
<line x1="550" y1="168" x2="550" y2="196" stroke="black"/>
<line x1="150" y1="179" x2="250" y2="179" stroke="black"/>
<polygon fill="black" points="250,179 240,185 240,173"/>
<polygon fill="white" points="186,169 212,169 212,178 186,178"/>
<text x="187" y="178" textLength="24" font-family="Helvetica" font-size="12" fill="black">
read
</text>
<line x1="50" y1="196" x2="50" y2="224" stroke="black"/>
<line x1="150" y1="196" x2="150" y2="224" stroke="black"/>
<line x1="250" y1="196" x2="250" y2="224" stroke="black"/>
<line x1="350" y1="196" x2="350" y2="224" stroke="black"/>
<line x1="450" y1="196" x2="450" y2="224" stroke="black"/>
<line x1="550" y1="196" x2="550" y2="224" stroke="black"/>
<line x1="250" y1="207" x2="150" y2="207" stroke="black" stroke-dasharray="2,2"/>
<polygon fill="black" points="150,207 160,213 160,201"/>
<polygon fill="white" points="167,197 232,197 232,206 167,206"/>
<text x="168" y="206" textLength="63" font-family="Helvetica" font-size="12" fill="black">
read results
</text>
<line x1="50" y1="224" x2="50" y2="252" stroke="black"/>
<line x1="150" y1="224" x2="150" y2="252" stroke="black"/>
<line x1="250" y1="224" x2="250" y2="252" stroke="black"/>
<line x1="350" y1="224" x2="350" y2="252" stroke="black"/>
<line x1="450" y1="224" x2="450" y2="252" stroke="black"/>
<line x1="550" y1="224" x2="550" y2="252" stroke="black"/>
<line x1="150" y1="235" x2="50" y2="235" stroke="black"/>
<line x1="50" y1="235" x2="60" y2="241" stroke="black"/>
<line x1="50" y1="235" x2="60" y2="229" stroke="black"/>
<polygon fill="white" points="86,225 112,225 112,234 86,234"/>
<text x="87" y="234" textLength="24" font-family="Helvetica" font-size="12" fill="black">
read
</text>
<line x1="50" y1="252" x2="50" y2="269" stroke="black" stroke-dasharray="2,2"/>
<line x1="150" y1="252" x2="150" y2="269" stroke="black" stroke-dasharray="2,2"/>
<line x1="250" y1="252" x2="250" y2="269" stroke="black" stroke-dasharray="2,2"/>
<line x1="350" y1="252" x2="350" y2="269" stroke="black" stroke-dasharray="2,2"/>
<line x1="450" y1="252" x2="450" y2="269" stroke="black" stroke-dasharray="2,2"/>
<line x1="550" y1="252" x2="550" y2="269" stroke="black" stroke-dasharray="2,2"/>
<line x1="50" y1="269" x2="50" y2="286" stroke="black"/>
<line x1="150" y1="269" x2="150" y2="286" stroke="black"/>
<line x1="250" y1="269" x2="250" y2="286" stroke="black"/>
<line x1="350" y1="269" x2="350" y2="286" stroke="black"/>
<line x1="450" y1="269" x2="450" y2="286" stroke="black"/>
<line x1="550" y1="269" x2="550" y2="286" stroke="black"/>
<line x1="50" y1="286" x2="50" y2="314" stroke="black"/>
<line x1="150" y1="286" x2="150" y2="314" stroke="black"/>
<line x1="250" y1="286" x2="250" y2="314" stroke="black"/>
<line x1="350" y1="286" x2="350" y2="314" stroke="black"/>
<line x1="450" y1="286" x2="450" y2="314" stroke="black"/>
<line x1="550" y1="286" x2="550" y2="314" stroke="black"/>
<polygon fill="white" points="8,286 592,286 592,308 8,308"/>
<line x1="8" y1="286" x2="592" y2="286" stroke="black"/>
<line x1="8" y1="308" x2="592" y2="308" stroke="black"/>
<line x1="8" y1="286" x2="8" y2="308" stroke="black"/>
<line x1="592" y1="286" x2="592" y2="308" stroke="black"/>
<polygon fill="white" points="266,293 333,293 333,302 266,302"/>
<text x="267" y="302" textLength="65" font-family="Helvetica" font-size="12" fill="black">
remote read
</text>
<line x1="50" y1="314" x2="50" y2="342" stroke="black"/>
<line x1="150" y1="314" x2="150" y2="342" stroke="black"/>
<line x1="250" y1="314" x2="250" y2="342" stroke="black"/>
<line x1="350" y1="314" x2="350" y2="342" stroke="black"/>
<line x1="450" y1="314" x2="450" y2="342" stroke="black"/>
<line x1="550" y1="314" x2="550" y2="342" stroke="black"/>
<line x1="50" y1="325" x2="150" y2="325" stroke="black"/>
<polygon fill="black" points="150,325 140,331 140,319"/>
<polygon fill="white" points="86,315 112,315 112,324 86,324"/>
<text x="87" y="324" textLength="24" font-family="Helvetica" font-size="12" fill="black">
read
</text>
<line x1="50" y1="342" x2="50" y2="370" stroke="black"/>
<line x1="150" y1="342" x2="150" y2="370" stroke="black"/>
<line x1="250" y1="342" x2="250" y2="370" stroke="black"/>
<line x1="350" y1="342" x2="350" y2="370" stroke="black"/>
<line x1="450" y1="342" x2="450" y2="370" stroke="black"/>
<line x1="550" y1="342" x2="550" y2="370" stroke="black"/>
<line x1="150" y1="353" x2="350" y2="353" stroke="black"/>
<polygon fill="black" points="350,353 340,359 340,347"/>
<polygon fill="white" points="236,343 262,343 262,352 236,352"/>
<text x="237" y="352" textLength="24" font-family="Helvetica" font-size="12" fill="black">
read
</text>
<line x1="50" y1="370" x2="50" y2="398" stroke="black"/>
<line x1="150" y1="370" x2="150" y2="398" stroke="black"/>
<line x1="250" y1="370" x2="250" y2="398" stroke="black"/>
<line x1="350" y1="370" x2="350" y2="398" stroke="black"/>
<line x1="450" y1="370" x2="450" y2="398" stroke="black"/>
<line x1="550" y1="370" x2="550" y2="398" stroke="black"/>
<line x1="350" y1="381" x2="450" y2="381" stroke="black"/>
<polygon fill="black" points="450,381 440,387 440,375"/>
<polygon fill="white" points="386,371 412,371 412,380 386,380"/>
<text x="387" y="380" textLength="24" font-family="Helvetica" font-size="12" fill="black">
read
</text>
<line x1="50" y1="398" x2="50" y2="426" stroke="black"/>
<line x1="150" y1="398" x2="150" y2="426" stroke="black"/>
<line x1="250" y1="398" x2="250" y2="426" stroke="black"/>
<line x1="350" y1="398" x2="350" y2="426" stroke="black"/>
<line x1="450" y1="398" x2="450" y2="426" stroke="black"/>
<line x1="550" y1="398" x2="550" y2="426" stroke="black"/>
<line x1="450" y1="409" x2="550" y2="409" stroke="black"/>
<polygon fill="black" points="550,409 540,415 540,403"/>
<polygon fill="white" points="486,399 512,399 512,408 486,408"/>
<text x="487" y="408" textLength="24" font-family="Helvetica" font-size="12" fill="black">
read
</text>
<line x1="50" y1="426" x2="50" y2="454" stroke="black"/>
<line x1="150" y1="426" x2="150" y2="454" stroke="black"/>
<line x1="250" y1="426" x2="250" y2="454" stroke="black"/>
<line x1="350" y1="426" x2="350" y2="454" stroke="black"/>
<line x1="450" y1="426" x2="450" y2="454" stroke="black"/>
<line x1="550" y1="426" x2="550" y2="454" stroke="black"/>
<line x1="550" y1="437" x2="450" y2="437" stroke="black" stroke-dasharray="2,2"/>
<polygon fill="black" points="450,437 460,443 460,431"/>
<polygon fill="white" points="467,427 532,427 532,436 467,436"/>
<text x="468" y="436" textLength="63" font-family="Helvetica" font-size="12" fill="black">
read results
</text>
<line x1="50" y1="454" x2="50" y2="482" stroke="black"/>
<line x1="150" y1="454" x2="150" y2="482" stroke="black"/>
<line x1="250" y1="454" x2="250" y2="482" stroke="black"/>
<line x1="350" y1="454" x2="350" y2="482" stroke="black"/>
<line x1="450" y1="454" x2="450" y2="482" stroke="black"/>
<line x1="550" y1="454" x2="550" y2="482" stroke="black"/>
<line x1="450" y1="465" x2="350" y2="465" stroke="black"/>
<line x1="350" y1="465" x2="360" y2="471" stroke="black"/>
<line x1="350" y1="465" x2="360" y2="459" stroke="black"/>
<polygon fill="white" points="367,455 432,455 432,464 367,464"/>
<text x="368" y="464" textLength="63" font-family="Helvetica" font-size="12" fill="black">
read results
</text>
<line x1="50" y1="482" x2="50" y2="510" stroke="black"/>
<line x1="150" y1="482" x2="150" y2="510" stroke="black"/>
<line x1="250" y1="482" x2="250" y2="510" stroke="black"/>
<line x1="350" y1="482" x2="350" y2="510" stroke="black"/>
<line x1="450" y1="482" x2="450" y2="510" stroke="black"/>
<line x1="550" y1="482" x2="550" y2="510" stroke="black"/>
<line x1="350" y1="493" x2="50" y2="493" stroke="black"/>
<line x1="50" y1="493" x2="60" y2="499" stroke="black"/>
<line x1="50" y1="493" x2="60" y2="487" stroke="black"/>
<polygon fill="white" points="167,483 232,483 232,492 167,492"/>
<text x="168" y="492" textLength="63" font-family="Helvetica" font-size="12" fill="black">
read results
</text>
<line x1="50" y1="504" x2="50" y2="510" stroke="black"/>
<line x1="150" y1="504" x2="150" y2="510" stroke="black"/>
<line x1="250" y1="504" x2="250" y2="510" stroke="black"/>
<line x1="350" y1="504" x2="350" y2="510" stroke="black"/>
<line x1="450" y1="504" x2="450" y2="510" stroke="black"/>
<line x1="550" y1="504" x2="550" y2="510" stroke="black"/>
</svg>
